<svg xmlns="http://www.w3.org/2000/svg" viewBox="0 0 24 30" x="0px" y="0px"><title>warning</title><g><path d="M21.63,17.29,14.08,4.19a2.4,2.4,0,0,0-4.16,0L2.36,17.3A2.5,2.5,0,0,0,4.55,21h14.9a2.49,2.49,0,0,0,2.18-3.72Zm-1.75,1.48a.49.49,0,0,1-.43.24H4.55a.49.49,0,0,1-.43-.24.48.48,0,0,1,0-.48l7.55-13.1a.41.41,0,0,1,.7,0l7.54,13.08A.49.49,0,0,1,19.88,18.77Z"/><path d="M12,9a1,1,0,0,0-1,1v4a1,1,0,0,0,2,0V10A1,1,0,0,0,12,9Z"/><path d="M11.62,16.09a1,1,0,0,0-.33.22,1,1,0,0,0,0,1.41,1,1,0,0,0,1.42-1.41A1,1,0,0,0,11.62,16.09Z"/></g><text x="0" y="39" fill="#000000" font-size="5px" font-weight="bold" font-family="'Helvetica Neue', Helvetica, Arial-Unicode, Arial, Sans-serif">Created by Soni Sokell</text><text x="0" y="44" fill="#000000" font-size="5px" font-weight="bold" font-family="'Helvetica Neue', Helvetica, Arial-Unicode, Arial, Sans-serif">from the Noun Project</text></svg>